# AST/ASF file generated using VICON BodyLanguage
# -----------------------------------------------
:version 1.10
:name VICON
:units
  mass 1.0
  length 0.45
  angle deg
:documentation
   .ast/.asf automatically generated from VICON data using
   VICON BodyBuilder and BodyLanguage model FoxedUp or BRILLIANT.MOD
:root
   order TX TY TZ RX RY RZ
   axis XYZ
   position 0 0 0  
   orientation 0 0 0 
:bonedata
  begin
     id 1 
     name lhipjoint
     direction 0.707368 -0.647095 0.284426 
     length 2.60678 
     axis 0 0 0  XYZ
  end
  begin
     id 2 
     name lfemur
     direction 0.34202 -0.939693 0  
     length 6.63812  
     axis 0 0 20  XYZ
    dof rx ry rz
    limits (-160.0 20.0)
           (-70.0 70.0)
           (-60.0 70.0)
  end
  begin
     id 3 
     name ltibia
     direction 0.34202 -0.939693 0   
     length 7.51178   
     axis 0 0 20   XYZ
    dof rx
    limits (-10.0 170.0)
  end
  begin
     id 4 
     name lfoot
     direction 0.121251 -0.333133 0.935051   
     length 1.83716   
     axis -90 7.62852e-016 20   XYZ
    dof rx rz
    limits (-45.0 90.0)
           (-70.0 20.0)
  end
  begin
     id 5 
     name ltoes
     direction 1.53611e-011 -4.21962e-011 1   
     length 0.916133   
     axis -90 7.62852e-016 20   XYZ
    dof rx
    limits (-90.0 20.0)
  end
  begin
     id 6 
     name rhipjoint
     direction -0.692419 -0.660507 0.290321   
     length 2.55385  
     axis 0 0 0  XYZ 
  end
  begin
     id 7 
     name rfemur
     direction -0.34202 -0.939693 0   
     length 7.29079   
     axis 0 0 -20   XYZ
    dof rx ry rz
    limits (-160.0 20.0)
           (-70.0 70.0)
           (-70.0 60.0)
  end
  begin
     id 8 
     name rtibia
     direction -0.34202 -0.939693 0   
     length 7.47143   
     axis 0 0 -20   XYZ
    dof rx
    limits (-10.0 170.0)
 end
 begin
     id 9 
     name rfoot
     direction -0.119907 -0.329441 0.936532   
     length 1.79439  
     axis -90 -7.62852e-016 -20   XYZ
    dof rx rz
    limits (-45.0 90.0)
           (-20.0 70.0)
  end
  begin
     id 10 
     name rtoes
     direction -1.53571e-011 -4.21961e-011 1   
     length 0.896039   
     axis -90 -7.62852e-016 -20   XYZ
    dof rx
    limits (-90.0 20.0)
  end
  begin
     id 11 
     name lowerback
     direction 0.0367721 0.992912 -0.113016   
     length 1.73542   
     axis 0 0 0   XYZ
    dof rx ry rz
    limits (-20.0 45.0)
           (-30.0 30.0)
           (-30.0 30.0)
  end
  begin
     id 12 
     name upperback
     direction -0.000314626 0.990678 0.136227   
     length 1.7514   
     axis 0 0 0   XYZ
    dof rx ry rz
    limits (-20.0 45.0)
           (-30.0 30.0)
           (-30.0 30.0)
  end
  begin
     id 13 
     name thorax
     direction -0.0226159 0.981151 0.191917   
     length 1.71471   
     axis 0 0 0   XYZ
    dof rx ry rz
    limits (-20.0 45.0)
           (-30.0 30.0)
           (-30.0 30.0)
  end
  begin
     id 14 
     name lowerneck
     direction 0.0219333 0.998071 0.0580739   
     length 1.65882   
     axis 0 0 0   XYZ
    dof rx ry rz
    limits (-20.0 45.0)
           (-30.0 30.0)
           (-30.0 30.0)
  end
  begin
     id 15 
     name upperneck
     direction 0.0384529 0.980058 -0.194957   
     length 1.6612   
     axis 0 0 0   XYZ
    dof rx ry rz
    limits (-20.0 45.0)
           (-30.0 30.0)
           (-30.0 30.0)
  end
  begin
     id 16
     name head
     direction 0.00592123 0.997421 -0.0715234  
     length 1.68077  
     axis 0 0 0   XYZ
    dof rx ry rz
    limits (-20.0 45.0)
           (-30.0 30.0)
           (-30.0 30.0)
  end
  begin
     id 17 
     name lclavicle
     direction 0.904803 0.417826 0.0821728  
     length 3.42227  
     axis 0 0 0   XYZ
    dof ry rz
    limits (-20.0 10.0)
           (0.0 20.0)
  end
  begin
     id 18 
     name lhumerus
     direction 1 -4.48965e-011 -2.68786e-027   
     length 5.11878   
     axis -180 -30 -90   XYZ
    dof rx ry rz
    limits (-60.0 90.0)
           (-90.0 90.0)
           (-90.0 90.0)
  end
  begin
     id 19
     name lradius
     direction 1 -4.48965e-011 2.61168e-028   
     length 3.59971   
     axis -180 -30 -90   XYZ
    dof rx
    limits (-10.0 170.0)
  end
  begin
     id 20
     name lwrist
     direction 1 -4.48965e-011 1.58672e-027   
     length 1.79985   
     axis -1.65735e-015 90 90   XYZ
    dof ry
    limits (-180.0 0.0)
 end
  begin
     id 21 
     name lhand
     direction 1 -4.48942e-011 3.17344e-027   
     length 0.62877   
     axis -2.02492e-015 90 90   XYZ
    dof rx rz
    limits (-90.0 90.0)
           (-45.0 45.0)
  end
  begin
     id 22 
     name lfingers
     direction 1 -4.49011e-011 6.34687e-027   
     length 0.506931   
     axis -4.04985e-015 90 90   XYZ
    dof rx
    limits (0.0 90.0)
  end
  begin
     id 23
     name lthumb
     direction 0.707107 -6.34982e-011 0.707107   
     length 0.727854   
     axis -90 45 2.85299e-015   XYZ
    dof rx rz
    limits (-45.0 45.0)
           (-45.0 45.0)
  end
  begin
     id 24 
     name rclavicle
     direction -0.945647 0.32488 0.0143075   
     length 3.52737  
     axis 0 0 0   XYZ 
    dof ry rz
    limits (-10.0 20.0)
           (-20.0 0.0)
  end
  begin
     id 25 
     name rhumerus
     direction -1 -4.48962e-011 1.92182e-027  
     length 5.4902   
     axis -180 30 90   XYZ
    dof rx ry rz
    limits (-90.0 60.0)
           (-90.0 90.0)
           (-90.0 90.0)
  end
  begin
     id 26 
     name rradius
     direction -1 -4.48967e-011 -5.97193e-028   
     length 3.20659   
     axis -180 30 90   XYZ
    dof rx
    limits (-10.0 170.0)
  end
  begin
     id 27 
     name rwrist
     direction -1 -4.48964e-011 1.58672e-027   
     length 1.6033   
     axis -1.65735e-015 -90 -90   XYZ
    dof ry
    limits (-180.0 0.0)
  end
  begin
     id 28
     name rhand
     direction -1 -4.49006e-011 3.17344e-027   
     length 0.691885   
     axis -2.02492e-015 -90 -90   XYZ
    dof rx rz
    limits (-90.0 90.0)
           (-45.0 45.0)
  end
  begin
     id 29
     name rfingers
     direction -1 -4.48908e-011 6.34687e-027   
     length 0.557815   
     axis -4.04985e-015 -90 -90   XYZ
    dof rx
    limits (0.0 90.0)
  end
  begin
     id 30
     name rthumb
     direction -0.707107 -6.34999e-011 0.707107   
     length 0.800915   
     axis -90 -45 -2.85299e-015   XYZ
    dof rx rz
    limits (-45.0 45.0)
           (-45.0 45.0)
  end
:hierarchy
  begin
    root lhipjoint rhipjoint lowerback
    lhipjoint lfemur
    lfemur ltibia
    ltibia lfoot
    lfoot ltoes
    rhipjoint rfemur
    rfemur rtibia
    rtibia rfoot
    rfoot rtoes
    lowerback upperback
    upperback thorax
    thorax lowerneck lclavicle rclavicle
    lowerneck upperneck
    upperneck head
    lclavicle lhumerus
    lhumerus lradius
    lradius lwrist
    lwrist lhand lthumb
    lhand lfingers
    rclavicle rhumerus
    rhumerus rradius
    rradius rwrist
    rwrist rhand rthumb
    rhand rfingers
  end

#!OML:ASF I:\Actors\actors\Patient Classification 1\Patient 1\Session 1\Subject1.ASF
:FULLY-SPECIFIED
:DEGREES
142
root 0.604334 17.4329 9.33432 10.4156 -2.4086 -9.54164
lowerback -0.650427 1.50293 7.91377
upperback -9.46558 2.50542 1.41531
thorax -9.45708 0.657462 -3.08226
lowerneck -12.0283 -4.39954 -2.46739
upperneck 25.9481 -7.9522 8.01431
head 10.7627 -2.9801 2.26308
rclavicle 1.68967e-015 1.63003e-014
rhumerus -47.9657 -7.92932 -82.0217
rradius 36.5985
rwrist 26.0084
rhand 1.32545 -43.9473
rfingers 7.12502
rthumb 26.8593 -72.0594
lclavicle 1.68967e-015 1.63003e-014
lhumerus -52.1261 6.28515 81.9724
lradius 43.0209
lwrist 17.1939
lhand -30.4046 5.05372
lfingers 7.12502
lthumb -3.70819 35.0012
rfemur -5.49051 26.0364 25.7721
rtibia 2.22969
rfoot -10.9616 -24.1098
rtoes 2.42507
lfemur 4.24159 -43.1894 -10.4343
ltibia -4.72225
lfoot -20.7196 52.0428
ltoes 9.31087
143
root 0.603035 17.4346 9.33514 10.4207 -2.29833 -9.54325
lowerback -0.664407 1.47283 7.93087
upperback -9.40208 2.45975 1.4064
thorax -9.38138 0.637787 -3.0973
lowerneck -12.4173 -4.15041 -2.6088
upperneck 26.1898 -7.69537 8.41649
head 10.9391 -2.81042 2.46484
rclavicle -1.25234e-014 7.15625e-015
rhumerus -48.4559 -6.46077 -82.8
rradius 39.1717
rwrist 23.7026
rhand 0.673794 -44.864
rfingers 7.12502
rthumb 26.2356 -73.0704
lclavicle -1.25234e-014 7.15625e-015
lhumerus -52.3834 5.62912 82.0909
lradius 46.1493
lwrist 21.6343
lhand -31.4237 6.28263
lfingers 7.12502
lthumb -4.69229 36.2107
rfemur -5.52598 25.9857 25.7828
rtibia 2.30614
rfoot -11.0987 -24.1352
rtoes 2.72876
lfemur 4.15257 -43.1399 -10.3537
ltibia -4.7153
lfoot -20.4511 51.9441
ltoes 9.05394
144
root 0.601156 17.4364 9.33449 10.4231 -2.15715 -9.52672
lowerback -0.685906 1.43692 7.90555
upperback -9.33397 2.4038 1.40309
thorax -9.29807 0.617202 -3.08202
lowerneck -12.6687 -3.96272 -2.5791
upperneck 26.2521 -7.46629 8.52407
head 11.0011 -2.68032 2.52782
rclavicle -2.84262e-014 1.23246e-014
rhumerus -48.9553 -4.91227 -83.5882
rradius 41.8066
rwrist 21.4029
rhand 0.0453252 -45.9077
rfingers 7.12502
rthumb 25.6338 -74.2022
lclavicle -2.84262e-014 1.23246e-014
lhumerus -52.2813 5.14994 82.0085
lradius 48.9319
lwrist 26.2386
lhand -32.2225 7.05884
lfingers 7.12502
lthumb -5.46353 36.9684
rfemur -5.56482 25.999 25.7716
rtibia 2.39065
rfoot -11.286 -24.2247
rtoes 3.34584
lfemur 4.06872 -43.2042 -10.3048
ltibia -4.69841
lfoot -20.2335 51.9307
ltoes 8.79117
145
root 0.599519 17.4374 9.33116 10.393 -2.00008 -9.51074
lowerback -0.683838 1.40752 7.87083
upperback -9.25352 2.35889 1.41117
thorax -9.21426 0.603641 -3.05079
lowerneck -12.8321 -3.85434 -2.61739
upperneck 26.2399 -7.31648 8.59201
head 11.0233 -2.60272 2.5775
rclavicle 6.41081e-015 1.19271e-015
rhumerus -49.3527 -3.3137 -84.324
rradius 44.2666
rwrist 19.2452
rhand -0.470412 -46.7686
rfingers 7.12502
rthumb 25.1397 -75.1333
lclavicle 6.41081e-015 1.19271e-015
lhumerus -51.743 4.88782 81.7643
lradius 51.2792
lwrist 30.7583
lhand -32.9877 7.57437
lfingers 7.12502
lthumb -6.20232 37.4636
rfemur -5.59388 25.89 25.7713
rtibia 2.48043
rfoot -11.3514 -24.2315
rtoes 3.52753
lfemur 4.03915 -43.4074 -10.3137
ltibia -4.65383
lfoot -20.1287 52.0096
ltoes 8.55934
146
root 0.598094 17.4375 9.32394 10.3227 -1.8179 -9.48414
lowerback -0.654951 1.37673 7.82912
upperback -9.1531 2.31375 1.423
thorax -9.12421 0.591338 -3.01238
lowerneck -12.9054 -3.72095 -2.82685
upperneck 26.205 -7.14642 8.8734
head 11.0328 -2.51095 2.73898
rclavicle 1.43622e-014 -1.39149e-014
rhumerus -49.626 -1.62669 -85.0561
rradius 46.6099
rwrist 16.8437
rhand -0.462645 -47.7086
rfingers 7.12502
rthumb 25.1472 -76.0722
lclavicle 1.43622e-014 -1.39149e-014
lhumerus -50.7355 4.83188 81.4393
lradius 53.1032
lwrist 35.0534
lhand -34.1109 8.23369
lfingers 7.12502
lthumb -7.28665 38.0882
rfemur -5.56676 25.7275 25.7827
rtibia 2.52628
rfoot -11.3409 -24.241
rtoes 3.62888
lfemur 4.01668 -43.5244 -10.3347
ltibia -4.58661
lfoot -20.0994 51.9392
ltoes 8.56373
147
root 0.59506 17.4372 9.3119 10.2462 -1.57555 -9.39716
lowerback -0.581996 1.31616 7.72104
upperback -9.07022 2.23046 1.42321
thorax -9.0846 0.562436 -2.94856
lowerneck -12.8093 -3.51723 -2.92505
upperneck 26.084 -6.87761 9.10069
head 10.9612 -2.37667 2.87569
rclavicle -6.85807e-015 7.95139e-016
rhumerus -49.811 0.229389 -85.8783
rradius 49.0957
rwrist 13.2635
rhand 0.287648 -49.4343
rfingers 7.12502
rthumb 25.8659 -77.6952
lclavicle -6.85807e-015 7.95139e-016
lhumerus -49.2766 4.90433 81.0562
lradius 54.1265
lwrist 38.6293
lhand -35.1325 8.1769
lfingers 7.12502
lthumb -8.27267 37.9949
rfemur -5.51819 25.6422 25.7455
rtibia 2.54632
rfoot -11.3411 -24.4089
rtoes 3.64032
lfemur 3.85842 -43.4031 -10.307
ltibia -4.49363
lfoot -19.7992 51.6171
ltoes 8.36501
148
root 0.591638 17.4388 9.29753 10.1497 -1.30806 -9.36408
lowerback -0.456181 1.23525 7.69022
upperback -9.01266 2.13129 1.43903
thorax -9.10631 0.517368 -2.91129
lowerneck -13.0071 -3.43759 -2.83949
upperneck 26.4869 -6.74076 8.81843
head 11.1274 -2.32185 2.7826
rclavicle -1.41634e-014 -4.77083e-015
rhumerus -49.9299 2.31032 -86.801
rradius 51.6764
rwrist 8.54827
rhand 1.49254 -51.8434
rfingers 7.12502
rthumb 27.0192 -79.9308
lclavicle -1.41634e-014 -4.77083e-015
lhumerus -47.4517 4.89824 80.7499
lradius 54.3073
lwrist 41.1195
lhand -35.5354 7.11281
lfingers 7.12502
lthumb -8.6615 36.9151
rfemur -5.4684 25.5564 25.7742
rtibia 2.5886
rfoot -11.3793 -24.5836
rtoes 3.57909
lfemur 3.64397 -43.1332 -10.1656
ltibia -4.39387
lfoot -19.148 51.1866
ltoes 7.66376
149
root 0.589015 17.4422 9.28531 9.97287 -1.10279 -9.48877
lowerback -0.320009 1.18754 7.84591
upperback -8.93805 2.08765 1.48467
thorax -9.10852 0.487614 -2.94916
lowerneck -13.0173 -3.33614 -2.75891
upperneck 26.7001 -6.56528 8.58484
head 11.1846 -2.25517 2.71157
rclavicle -5.2181e-015 1.19271e-014
rhumerus -50.0472 4.55608 -87.8135
rradius 54.0146
rwrist 3.98416
rhand 2.93101 -53.4908
rfingers 7.12502
rthumb 28.3946 -81.3571
lclavicle -5.2181e-015 1.19271e-014
lhumerus -45.2508 4.54918 80.7375
lradius 53.8763
lwrist 42.9915
lhand -35.617 6.29934
lfingers 7.12502
lthumb -8.74025 36.0984
rfemur -5.34535 25.4978 26.0002
rtibia 2.66942
rfoot -11.499 -24.6822
rtoes 4.07923
lfemur 3.66326 -42.9763 -9.9877
ltibia -4.38837
lfoot -18.6581 50.9222
ltoes 7.10737
150
root 0.586245 17.4439 9.27365 9.81006 -0.89115 -9.57349
lowerback -0.255186 1.17223 7.98915
upperback -8.88095 2.07772 1.48536
thorax -9.0829 0.474165 -3.02852
lowerneck -12.9621 -3.27019 -2.68418
upperneck 26.9264 -6.45917 8.41667
head 11.2424 -2.21444 2.65692
rclavicle -5.61567e-015 -1.27222e-014
rhumerus -50.1768 6.85482 -88.9155
rradius 56.069
rwrist -0.374946
rhand 4.97651 -53.8553
rfingers 7.12502
rthumb 30.3476 -81.379
lclavicle -5.61567e-015 -1.27222e-014
lhumerus -42.6688 3.77343 81.0167
lradius 52.8376
lwrist 44.343
lhand -35.4361 6.34395
lfingers 7.12502
lthumb -8.56564 36.1502
rfemur -5.24579 25.3856 26.1772
rtibia 2.77795
rfoot -11.561 -24.7624
rtoes 4.5028
lfemur 3.69323 -42.8668 -9.85331
ltibia -4.42817
lfoot -18.2282 50.6859
ltoes 6.62885
151
root 0.583858 17.4445 9.26039 9.72782 -0.632009 -9.58585
lowerback -0.243469 1.13806 8.08084
upperback -8.8764 2.03634 1.46616
thorax -9.08826 0.445964 -3.09725
lowerneck -12.8959 -3.19491 -2.47016
upperneck 27.2047 -6.32008 8.04847
head 11.3037 -2.16752 2.50971
rclavicle 3.42904e-015 9.54166e-015
rhumerus -50.0847 8.8681 -89.6466
rradius 58.6719
rwrist -7.85848
rhand 8.16329 -56.1458
rfingers 7.12502
rthumb 33.3823 -83.0646
lclavicle 3.42904e-015 9.54166e-015
lhumerus -39.8876 2.63452 81.5211
lradius 51.2367
lwrist 45.2722
lhand -35.2231 6.88747
lfingers 7.12502
lthumb -8.36008 36.702
rfemur -5.2266 25.2239 26.2404
rtibia 2.85196
rfoot -11.5565 -24.8672
rtoes 4.46336
lfemur 3.51751 -42.6205 -9.66439
ltibia -4.40998
lfoot -17.719 50.2563
ltoes 6.18577
152
root 0.581815 17.4466 9.2476 9.66023 -0.393824 -9.62736
lowerback -0.265213 1.08128 8.18483
upperback -8.87603 1.96504 1.49259
thorax -9.08371 0.404489 -3.12125
lowerneck -12.7576 -3.00483 -1.85981
upperneck 27.5092 -6.03301 7.40274
head 11.3301 -2.0468 2.2129
rclavicle 2.32081e-014 -2.18663e-014
rhumerus -49.9957 11.1068 -90.4689
rradius 61.0843
rwrist -14.8239
rhand 10.3147 -58.0515
rfingers 7.12502
rthumb 35.4247 -84.5073
lclavicle 2.32081e-014 -2.18663e-014
lhumerus -37.1237 1.09012 82.2496
lradius 49.3877
lwrist 46.2141
lhand -35.1713 7.82248
lfingers 7.12502
lthumb -8.31006 37.639
rfemur -5.19692 25.1805 26.3277
rtibia 2.86954
rfoot -11.6523 -25.0351
rtoes 4.68422
lfemur 3.34168 -42.4014 -9.43981
ltibia -4.39231
lfoot -17.3781 49.8677
ltoes 5.84907
153
root 0.582337 17.448 9.2377 9.35099 -0.0319927 -9.90889
lowerback -0.116666 0.97024 8.60244
upperback -8.80332 1.85487 1.58314
thorax -9.10539 0.323373 -3.25139
lowerneck -12.3335 -2.70857 -0.682837
upperneck 27.6925 -5.66237 6.57686
head 11.2313 -1.85958 1.76471
rclavicle -5.11871e-015 2.18663e-014
rhumerus -49.9452 13.5016 -91.3587
rradius 63.4354
rwrist -20.6116
rhand 11.7829 -59.5815
rfingers 7.12502
rthumb 36.8154 -85.6935
lclavicle -5.11871e-015 2.18663e-014
lhumerus -34.521 -0.926285 83.1248
lradius 47.6207
lwrist 47.2873
lhand -34.7163 9.8284
lfingers 7.12502
lthumb -7.87099 39.6619
rfemur -4.74069 25.1642 26.8697
rtibia 2.75199
rfoot -11.8026 -25.3185
rtoes 5.19249
lfemur 3.60177 -42.2568 -9.21527
ltibia -4.48281
lfoot -16.8706 49.494
ltoes 5.08532
154
root 0.580533 17.4509 9.23186 8.92366 0.370061 -10.1747
lowerback 0.107023 0.814618 8.96191
upperback -8.71143 1.69053 1.67409
thorax -9.1588 0.219453 -3.34586
lowerneck -12.2648 -2.52193 -0.602698
upperneck 28.0989 -5.42725 6.52633
head 11.3585 -1.74056 1.77105
rclavicle -4.72114e-015 -1.07344e-014
rhumerus -49.9088 15.9057 -92.2947
rradius 65.648
rwrist -24.7491
rhand 13.0701 -60.5778
rfingers 7.12502
rthumb 38.0321 -86.3683
lclavicle -4.72114e-015 -1.07344e-014
lhumerus -32.2222 -3.43683 84.0621
lradius 46.0433
lwrist 48.5868
lhand -33.4954 12.3139
lfingers 7.12502
lthumb -6.69251 42.1882
rfemur -4.04303 25.2889 27.5005
rtibia 2.54214
rfoot -11.9349 -25.8109
rtoes 5.56888
lfemur 4.14082 -42.3652 -9.19756
ltibia -4.62103
lfoot -16.3837 49.2902
ltoes 4.39925
155
root 0.571781 17.4578 9.22792 8.85752 0.50246 -9.90454
lowerback -0.00337239 0.710671 8.56404
upperback -8.72304 1.51818 1.66784
thorax -9.12597 0.166263 -3.11769
lowerneck -12.2728 -2.31885 -0.413385
upperneck 28.5518 -5.1697 6.37399
head 11.5138 -1.60968 1.72411
rclavicle 3.10104e-014 -3.73715e-014
rhumerus -49.8453 18.3693 -93.2639
rradius 67.6769
rwrist -27.5627
rhand 14.2899 -60.8961
rfingers 7.12502
rthumb 39.1828 -86.3635
lclavicle 3.10104e-014 -3.73715e-014
lhumerus -30.3966 -6.47947 85.0628
lradius 44.7533
lwrist 50.1736
lhand -31.7624 13.7836
lfingers 7.12502
lthumb -5.01931 43.7042
rfemur -3.88723 25.6683 27.2792
rtibia 2.43639
rfoot -12.02 -26.3513
rtoes 5.77178
lfemur 4.2591 -42.8524 -9.56195
ltibia -4.65135
lfoot -16.5771 49.5483
ltoes 4.7946
156
root 0.5659 17.4622 9.22185 8.94845 0.474844 -9.62771
lowerback -0.196049 0.642876 8.17321
upperback -8.77066 1.38847 1.65673
thorax -9.078 0.132683 -2.90055
lowerneck -12.3742 -2.08327 -0.245965
upperneck 29.0319 -4.87878 6.27548
head 11.7024 -1.45718 1.70542
rclavicle -1.03368e-014 -7.95139e-016
rhumerus -49.7245 20.9732 -94.2574
rradius 69.6488
rwrist -30.0305
rhand 15.5146 -61.0494
rfingers 7.12502
rthumb 40.3358 -86.1733
lclavicle -1.03368e-014 -7.95139e-016
lhumerus -29.1943 -10.0225 86.1124
lradius 44.2542
lwrist 51.966
lhand -29.8779 15.123
lfingers 7.12502
lthumb -3.19959 45.0787
rfemur -4.02314 25.8933 26.907
rtibia 2.4208
rfoot -12.0442 -26.5809
rtoes 5.82647
lfemur 4.15942 -43.2049 -9.80988
ltibia -4.64179
lfoot -16.9475 49.821
ltoes 5.48855
